#!OML:ASF F:\VICON\USERDATA\INSTALL\rory3\rory3.ASF
:FULLY-SPECIFIED
:DEGREES
287
root 0.656334 21.0974 -1.75041 2.46929 0.12276 -0.467968
lowerback 14.447 0.415243 -2.08074
upperback 1.41898 0.388328 2.40772
thorax -6.63346 0.280128 3.66287
lowerneck -11.516 -4.10458 -10.7073
upperneck 28.9192 -5.21022 6.32837
head 11.8191 -2.74715 3.50093
rclavicle 2.78299e-015 4.6118e-014
rhumerus -49.3475 -1.40759 -73.1956
rradius 65.8417
rwrist -4.09506
rhand -27.4947 21.1622
rfingers 7.12502
rthumb -0.897903 -8.81567
lclavicle 2.78299e-015 4.6118e-014
lhumerus -46.7895 4.03766 73.9434
lradius 45.9373
lwrist 10.7345
lhand -25.1997 23.6722
lfingers 7.12502
lthumb 1.31865 53.6478
rfemur -27.0433 -4.36739 23.1046
rtibia 33.6494
rfoot 19.1809 -2.88898
rtoes 6.04008
lfemur -18.8312 -3.53371 -19.7272
ltibia 27.7242
lfoot 17.1813 -4.64213
ltoes -4.7977
288
root 0.653516 20.9521 -1.53951 2.4993 0.469888 -0.387184
lowerback 14.4927 0.454942 -2.05764
upperback 1.22682 0.438605 2.30195
thorax -6.86726 0.309041 3.52856
lowerneck -10.8069 -4.08517 -10.3642
upperneck 28.978 -5.28683 6.15048
head 11.6871 -2.7773 3.37329
rclavicle 7.05686e-015 5.1684e-015
rhumerus -49.2088 -1.30935 -73.1876
rradius 63.7692
rwrist -3.67443
rhand -26.6325 21.0562
rfingers 7.12502
rthumb -0.0651631 -8.92349
lclavicle 7.05686e-015 5.1684e-015
lhumerus -46.4054 3.64272 74.1406
lradius 45.3005
lwrist 10.4621
lhand -25.0439 23.6951
lfingers 7.12502
lthumb 1.46922 53.6698
rfemur -27.1601 -3.93402 22.6644
rtibia 31.8052
rfoot 19.2178 -3.11765
rtoes 4.82345
lfemur -19.2438 -4.14027 -19.6602
ltibia 25.8615
lfoot 16.8771 -4.1008
ltoes -6.21428
289
root 0.645455 20.7961 -1.31754 2.51671 0.78875 -0.22045
lowerback 14.5222 0.481557 -2.20102
upperback 1.12372 0.44719 2.24409
thorax -6.99538 0.32029 3.54786
lowerneck -11.2764 -4.15971 -9.9582
upperneck 29.7164 -5.33512 5.70448
head 12.0558 -2.80685 3.13611
rclavicle 1.39149e-015 -7.15625e-015
rhumerus -48.9231 -1.00281 -73.1725
rradius 61.9427
rwrist -3.15878
rhand -25.8269 20.2794
rfingers 7.12502
rthumb 0.712967 -9.69918
lclavicle 1.39149e-015 -7.15625e-015
lhumerus -45.9395 3.21307 74.4828
lradius 44.8699
lwrist 10.4571
lhand -24.806 23.4326
lfingers 7.12502
lthumb 1.69897 53.4055
rfemur -27.2141 -3.35475 22.0993
rtibia 30.0108
rfoot 19.3698 -3.80906
rtoes 3.93591
lfemur -19.6235 -4.67818 -19.6687
ltibia 24.0132
lfoot 17.0362 -3.42233
ltoes -7.20128
290
root 0.635027 20.6308 -1.08826 2.36089 1.01463 -0.0407065
lowerback 14.5659 0.535595 -2.50108
upperback 1.12947 0.471017 2.26353
thorax -7.01828 0.341867 3.73553
lowerneck -11.6543 -4.22754 -9.87219
upperneck 30.2787 -5.37224 5.49759
head 12.3573 -2.83805 3.04257
rclavicle 5.26779e-015 -2.06736e-014
rhumerus -48.5584 -0.445693 -73.1739
rradius 59.988
rwrist -3.09817
rhand -25.0205 19.5232
rfingers 7.12502
rthumb 1.49181 -10.4513
lclavicle 5.26779e-015 -2.06736e-014
lhumerus -45.5118 2.96945 74.9075
lradius 44.565
lwrist 10.5719
lhand -24.7227 23.9849
lfingers 7.12502
lthumb 1.77938 53.9573
rfemur -27.0735 -2.54411 21.4815
rtibia 28.3231
rfoot 19.7549 -4.92273
rtoes 4.2039
lfemur -19.844 -5.21446 -19.6773
ltibia 22.2872
lfoot 17.5039 -2.3841
ltoes -7.60094
291
root 0.62535 20.4547 -0.860447 2.119 0.999544 -0.0683011
lowerback 14.5205 0.682351 -2.5711
upperback 1.35249 0.654438 2.27584
thorax -6.77047 0.425619 3.7493
lowerneck -11.8739 -4.33187 -9.93493
upperneck 30.4405 -5.50694 5.5561
head 12.4873 -2.89482 3.05648
rclavicle 9.93923e-016 -5.56597e-015
rhumerus -47.7131 -0.0911099 -73.2908
rradius 57.7264
rwrist -3.33782
rhand -24.1396 18.1036
rfingers 7.12502
rthumb 2.34255 -11.8633
lclavicle 9.93923e-016 -5.56597e-015
lhumerus -44.6019 2.81381 75.314
lradius 44.0299
lwrist 10.8903
lhand -24.9683 24.4129
lfingers 7.12502
lthumb 1.54216 54.3871
rfemur -26.891 -1.60305 21.1237
rtibia 26.8318
rfoot 20.3763 -6.07507
rtoes 5.34251
lfemur -20.013 -5.50512 -19.4956
ltibia 20.7413
lfoot 18.1249 -1.28233
ltoes -8.49393
292
root 0.620764 20.2729 -0.632616 1.92764 1.03627 -0.147132
lowerback 14.3644 0.801279 -2.44704
upperback 1.57331 0.829969 2.23433
thorax -6.4602 0.498537 3.597
lowerneck -12.0331 -4.47018 -9.93142
upperneck 30.4619 -5.72575 5.66789
head 12.5546 -2.97405 3.06483
rclavicle 1.98785e-016 -7.55382e-015
rhumerus -46.7992 0.220667 -73.4828
rradius 55.552
rwrist -3.67779
rhand -23.3393 17.2442
rfingers 7.12502
rthumb 3.11539 -12.7128
lclavicle 1.98785e-016 -7.55382e-015
lhumerus -43.6972 2.47942 75.6821
lradius 43.6199
lwrist 11.1274
lhand -25.0348 24.2484
lfingers 7.12502
lthumb 1.47798 54.223
rfemur -26.7384 -1.08691 20.9214
rtibia 25.5458
rfoot 21.2756 -6.77365
rtoes 6.58553
lfemur -20.3444 -5.70926 -19.3112
ltibia 19.4451
lfoot 18.9209 -0.334136
ltoes -8.67053
293
root 0.617193 20.0774 -0.411731 1.81418 1.33645 -0.153775
lowerback 14.3174 0.815709 -2.38583
upperback 1.58511 0.860095 2.24075
thorax -6.42321 0.511076 3.56282
lowerneck -11.5836 -4.54851 -10.3562
upperneck 30.2652 -5.91851 6.14358
head 12.431 -3.05489 3.29679
rclavicle -9.64106e-015 3.97569e-016
rhumerus -46.3498 0.887783 -73.6612
rradius 53.8155
rwrist -4.13864
rhand -22.8757 18.204
rfingers 7.12502
rthumb 3.56312 -11.746
lclavicle -9.64106e-015 3.97569e-016
lhumerus -43.3748 2.22074 76.0845
lradius 43.6741
lwrist 11.0557
lhand -24.8267 23.4957
lfingers 7.12502
lthumb 1.67891 53.4688
rfemur -26.702 -0.933614 20.6774
rtibia 24.5021
rfoot 22.2866 -7.35026
rtoes 8.43063
lfemur -20.9663 -5.93704 -19.2369
ltibia 18.432
lfoot 19.7615 0.505597
ltoes -7.75508
294
root 0.612511 19.8696 -0.19328 1.71795 1.69406 -0.214747
lowerback 14.1631 0.814021 -2.3099
upperback 1.6743 0.874158 2.27696
thorax -6.24323 0.512449 3.55487
lowerneck -10.7212 -4.61851 -10.9741
upperneck 29.6039 -6.14578 6.84078
head 12.0553 -3.15066 3.63729
rclavicle -4.17448e-015 -2.66371e-014
rhumerus -45.9263 1.53639 -73.8844
rradius 52.2914
rwrist -4.56982
rhand -22.9069 19.8549
rfingers 7.12502
rthumb 3.53305 -10.0955
lclavicle -4.17448e-015 -2.66371e-014
lhumerus -42.9231 2.04087 76.474
lradius 43.8213
lwrist 10.9778
lhand -24.7367 22.7969
lfingers 7.12502
lthumb 1.76583 52.7693
rfemur -26.735 -0.716058 20.4831
rtibia 23.7626
rfoot 23.0886 -8.23418
rtoes 10.15
lfemur -21.6975 -6.14923 -19.1142
ltibia 17.6376
lfoot 20.4942 1.2751
ltoes -6.68654
295
root 0.607859 19.6525 0.0356027 1.5287 2.08147 -0.2204
lowerback 13.8751 0.806891 -2.25459
upperback 1.90105 0.875009 2.26431
thorax -5.84175 0.502039 3.50871
lowerneck -10.5972 -4.74757 -11.2373
upperneck 29.3461 -6.36091 7.14254
head 11.9723 -3.23937 3.76348
rclavicle 2.78299e-015 7.95139e-015
rhumerus -45.3187 2.06861 -74.1558
rradius 50.7878
rwrist -5.17323
rhand -23.0264 20.7475
rfingers 7.12502
rthumb 3.41759 -9.2049
lclavicle 2.78299e-015 7.95139e-015
lhumerus -42.2399 1.64851 76.9416
lradius 44.0103
lwrist 11.3341
lhand -24.8077 23.185
lfingers 7.12502
lthumb 1.69734 53.158
rfemur -26.7006 -0.685023 20.2534
rtibia 23.3371
rfoot 23.8766 -8.73513
rtoes 11.0415
lfemur -22.3231 -6.3332 -19.0956
ltibia 17.0658
lfoot 21.0501 1.51322
ltoes -6.76329
296
root 0.602906 19.4155 0.264967 1.21777 2.40408 -0.261276
lowerback 13.8432 0.831704 -2.21421
upperback 1.95851 0.915524 2.2845
thorax -5.7661 0.51943 3.49934
lowerneck -10.7882 -4.80111 -11.2556
upperneck 29.5977 -6.41151 7.10513
head 12.1187 -3.26598 3.74853
rclavicle -9.34288e-015 -1.03368e-014
rhumerus -44.9722 2.6991 -74.3336
rradius 49.4705
rwrist -5.38301
rhand -23.1013 20.2959
rfingers 7.12502
rthumb 3.34523 -9.65759
lclavicle -9.34288e-015 -1.03368e-014
lhumerus -41.8707 1.16423 77.4659
lradius 44.1357
lwrist 11.6539
lhand -24.8783 23.1481
lfingers 7.12502
lthumb 1.62912 53.1216
rfemur -26.621 -0.798581 20.1274
rtibia 23.1695
rfoot 24.9142 -8.44509
rtoes 11.6004
lfemur -22.8856 -6.44969 -19.0405
ltibia 16.7648
lfoot 21.2928 1.514
ltoes -8.04773
297
root 0.597004 19.1605 0.484002 0.868777 2.56391 -0.470186
lowerback 13.7995 0.922479 -2.13789
upperback 2.09535 1.05476 2.41421
thorax -5.60898 0.583335 3.56747
lowerneck -10.938 -4.85386 -11.2894
upperneck 29.6737 -6.43623 7.01595
head 12.1826 -3.28763 3.71593
rclavicle -1.07344e-014 -2.3059e-014
rhumerus -44.4572 3.29117 -74.3596
rradius 48.3444
rwrist -4.7482
rhand -22.4092 18.9113
rfingers 7.12502
rthumb 4.01362 -11.0307
lclavicle -1.07344e-014 -2.3059e-014
lhumerus -41.4625 0.987326 77.9428
lradius 44.2581
lwrist 11.5242
lhand -24.7907 22.2236
lfingers 7.12502
lthumb 1.71373 52.1965
rfemur -26.601 -0.962199 20.2924
rtibia 23.3036
rfoot 26.1508 -7.49505
rtoes 13.0632
lfemur -23.4147 -6.373 -18.8087
ltibia 16.7083
lfoot 21.1958 1.23058
ltoes -10.2696
298
root 0.592886 18.8965 0.70206 0.42872 2.75439 -0.686242
lowerback 13.7335 1.02823 -1.99497
upperback 2.34344 1.22083 2.52465
thorax -5.32261 0.655787 3.57256
lowerneck -11.3855 -4.99744 -11.307
upperneck 29.8531 -6.58148 6.97134
head 12.3658 -3.35077 3.67757
rclavicle -1.98785e-014 0
rhumerus -43.9497 3.84889 -74.4609
rradius 47.2156
rwrist -4.52424
rhand -20.3878 18.4592
rfingers 7.12502
rthumb 5.96547 -11.4368
lclavicle -1.98785e-014 0
lhumerus -41.0093 0.750522 78.3837
lradius 44.613
lwrist 11.1573
lhand -24.5782 23.0342
lfingers 7.12502
lthumb 1.91898 53.0053
rfemur -26.5055 -1.36267 20.5335
rtibia 23.7615
rfoot 26.9361 -6.21321
rtoes 14.2792
lfemur -23.8323 -6.12319 -18.6805
ltibia 17.0097
lfoot 20.8997 0.438706
ltoes -11.894
299
root 0.588986 18.6193 0.918458 -0.176917 3.14113 -0.898315
lowerback 14.1406 1.03151 -1.7932
upperback 2.41463 1.2543 2.57433
thorax -5.47072 0.670206 3.50215
lowerneck -11.9185 -5.11866 -11.2471
upperneck 30.2105 -6.72382 6.95273
head 12.638 -3.4014 3.63874
rclavicle 9.83984e-015 -4.37326e-014
rhumerus -43.7685 4.49229 -74.7026
rradius 46.0583
rwrist -3.61092
rhand -18.5826 18.7412
rfingers 7.12502
rthumb 7.70799 -11.0983
lclavicle 9.83984e-015 -4.37326e-014
lhumerus -40.7827 0.560649 78.6106
lradius 45.0352
lwrist 10.3569
lhand -23.6167 25.6382
lfingers 7.12502
lthumb 2.84749 55.599
rfemur -26.2654 -1.84982 20.7423
rtibia 24.5577
rfoot 26.6569 -5.29167
rtoes 13.9921
lfemur -24.2984 -5.74835 -18.7012
ltibia 17.8876
lfoot 20.8491 -0.692901
ltoes -12.4745
300
root 0.580198 18.3314 1.13001 -0.847754 3.50786 -1.34468
lowerback 14.6159 1.01691 -1.59716
upperback 2.4101 1.27765 2.80411
thorax -5.73986 0.68379 3.62862
lowerneck -11.8501 -5.1664 -11.2818
upperneck 30.0838 -6.76568 6.89016
head 12.5762 -3.43115 3.61151
rclavicle 6.95746e-016 1.74931e-014
rhumerus -43.7268 5.57082 -75.0471
rradius 44.8388
rwrist -3.4816
rhand -18.5862 19.9255
rfingers 7.12502
rthumb 7.70454 -9.91417
lclavicle 6.95746e-016 1.74931e-014
lhumerus -40.6939 0.422083 79.0104
lradius 45.3845
lwrist 10.1103
lhand -22.8322 27.0413
lfingers 7.12502
lthumb 3.6051 56.9906
rfemur -26.0729 -2.19455 21.2342
rtibia 25.8952
rfoot 24.3609 -4.42635
rtoes 12.4532
lfemur -24.9659 -5.2408 -18.4982
ltibia 19.4006
lfoot 21.0616 -1.59412
ltoes -12.7838
301
root 0.56967 18.0219 1.34226 -1.51113 3.69012 -1.83533
lowerback 14.8734 1.09274 -1.33629
upperback 2.46256 1.43216 3.02084
thorax -5.83699 0.757197 3.67935
lowerneck -11.7431 -5.2733 -11.378
upperneck 29.8541 -6.89624 6.88919
head 12.48 -3.49928 3.60364
rclavicle -1.86858e-014 -5.56597e-015
rhumerus -43.8241 6.48234 -75.4036
rradius 43.9667
rwrist -3.52413
rhand -19.2253 20.9775
rfingers 7.12502
rthumb 7.08769 -8.88386
lclavicle -1.86858e-014 -5.56597e-015
lhumerus -40.6172 0.259597 79.4442
lradius 45.5047
lwrist 10.2582
lhand -23.1519 25.7693
lfingers 7.12502
lthumb 3.29639 55.7236
rfemur -26.0634 -2.58597 21.8766
rtibia 28.0918
rfoot 18.7555 -2.65972
rtoes 9.234
lfemur -25.7598 -4.92915 -18.1876
ltibia 21.5415
lfoot 20.3629 -2.02782
ltoes -15.3701
